<?xml version="1.0" encoding="UTF-8" standalone="no"?>
<!DOCTYPE svg PUBLIC "-//W3C//DTD SVG 1.1//EN" "http://www.w3.org/Graphics/SVG/1.1/DTD/svg11.dtd">
<!-- Gegenereerd door Microsoft Visio, SVG Export q2-q3.svg Pagina-1 -->
<svg xmlns="http://www.w3.org/2000/svg" xmlns:xlink="http://www.w3.org/1999/xlink" xmlns:ev="http://www.w3.org/2001/xml-events"
		xmlns:v="http://schemas.microsoft.com/visio/2003/SVGExtensions/" width="2.36645in" height="0.97783in"
		viewBox="0 0 170.385 70.4037" xml:space="preserve" color-interpolation-filters="sRGB" class="st16">
	<v:documentProperties v:langID="1043" v:metric="true" v:viewMarkup="false"/>

	<style type="text/css">
	<![CDATA[
		.st1 {stroke:#000000;stroke-linecap:round;stroke-linejoin:round;stroke-width:1.2}
		.st2 {stroke:#000000;stroke-linecap:round;stroke-linejoin:round;stroke-width:0.75}
		.st3 {stroke:#000000;stroke-linecap:round;stroke-linejoin:round;stroke-width:2}
		.st4 {stroke:#800000;stroke-linecap:round;stroke-linejoin:round;stroke-width:1.2}
		.st5 {marker-end:url(#mrkr5-101);stroke:#800000;stroke-linecap:round;stroke-linejoin:round;stroke-width:1.2}
		.st6 {fill:#800000;fill-opacity:1;stroke:#800000;stroke-opacity:1;stroke-width:0.45454545454546}
		.st7 {fill:none;stroke:none;stroke-linecap:round;stroke-linejoin:round;stroke-width:0.24}
		.st8 {fill:#000000;font-family:Times New Roman;font-size:1.00001em;font-style:italic}
		.st9 {baseline-shift:-32.4941%;font-size:0.649882em;font-style:normal}
		.st10 {font-size:1em}
		.st11 {font-size:1em;font-style:normal}
		.st12 {fill:#800000;stroke:#ffffff;stroke-linecap:round;stroke-linejoin:round;stroke-width:0.75}
		.st13 {marker-end:url(#mrkr5-132);stroke:#800000;stroke-linecap:round;stroke-linejoin:round;stroke-width:2}
		.st14 {fill:#800000;fill-opacity:1;stroke:#800000;stroke-opacity:1;stroke-width:0.4424778761062}
		.st15 {fill:none;stroke:none;stroke-linecap:round;stroke-linejoin:round;stroke-width:0.75}
		.st16 {fill:none;fill-rule:evenodd;font-size:12px;overflow:visible;stroke-linecap:square;stroke-miterlimit:3}
	]]>
	</style>

	<defs id="Markers">
		<g id="lend5">
			<path d="M 2 1 L 0 0 L 1.98117 -0.993387 C 1.67173 -0.364515 1.67301 0.372641 1.98465 1.00043 " style="stroke:none"/>
		</g>
		<marker id="mrkr5-101" class="st6" v:arrowType="5" v:arrowSize="0" v:setback="3.85" refX="-3.85" orient="auto"
				markerUnits="strokeWidth" overflow="visible">
			<use xlink:href="#lend5" transform="scale(-2.2,-2.2) "/>
		</marker>
		<marker id="mrkr5-132" class="st14" v:arrowType="5" v:arrowSize="2" v:setback="3.775" refX="-3.775" orient="auto"
				markerUnits="strokeWidth" overflow="visible">
			<use xlink:href="#lend5" transform="scale(-2.26,-2.26) "/>
		</marker>
	</defs>
	<g v:mID="0" v:index="1" v:groupContext="foregroundPage">
		<title>Pagina-1</title>
		<v:pageProperties v:drawingScale="0.0393701" v:pageScale="0.0393701" v:drawingUnits="24" v:shadowOffsetX="8.50394"
				v:shadowOffsetY="-8.50394"/>
		<g id="group1609-1" transform="translate(10.107,-17.8428)" v:mID="1609" v:groupContext="group">
			<title>Inklemming.1609</title>
			<g id="shape1610-2" v:mID="1610" v:groupContext="shape" transform="translate(81.7423,42.0573) rotate(90)">
				<title>Blad.1610</title>
				<path d="M0 70.4 L28.35 70.4" class="st1"/>
			</g>
			<g id="shape1611-5" v:mID="1611" v:groupContext="shape" transform="translate(58.2869,-7.72568) rotate(45)">
				<title>Blad.1611</title>
				<path d="M0 70.4 L4.01 70.4" class="st2"/>
			</g>
			<g id="shape1612-8" v:mID="1612" v:groupContext="shape" transform="translate(55.4523,-7.72568) rotate(45)">
				<title>Blad.1612</title>
				<path d="M0 70.4 L8.02 70.4" class="st2"/>
			</g>
			<g id="shape1613-11" v:mID="1613" v:groupContext="shape" transform="translate(52.6176,-7.72568) rotate(45)">
				<title>Blad.1613</title>
				<path d="M0 70.4 L12.03 70.4" class="st2"/>
			</g>
			<g id="shape1614-14" v:mID="1614" v:groupContext="shape" transform="translate(49.783,-7.72568) rotate(45)">
				<title>Blad.1614</title>
				<path d="M0 70.4 L16.04 70.4" class="st2"/>
			</g>
			<g id="shape1615-17" v:mID="1615" v:groupContext="shape" transform="translate(49.783,-4.89103) rotate(45)">
				<title>Blad.1615</title>
				<path d="M0 70.4 L16.04 70.4" class="st2"/>
			</g>
			<g id="shape1616-20" v:mID="1616" v:groupContext="shape" transform="translate(49.783,-2.05639) rotate(45)">
				<title>Blad.1616</title>
				<path d="M0 70.4 L16.04 70.4" class="st2"/>
			</g>
			<g id="shape1617-23" v:mID="1617" v:groupContext="shape" transform="translate(49.783,0.778258) rotate(45)">
				<title>Blad.1617</title>
				<path d="M0 70.4 L16.04 70.4" class="st2"/>
			</g>
			<g id="shape1618-26" v:mID="1618" v:groupContext="shape" transform="translate(49.783,3.6129) rotate(45)">
				<title>Blad.1618</title>
				<path d="M0 70.4 L16.04 70.4" class="st2"/>
			</g>
			<g id="shape1619-29" v:mID="1619" v:groupContext="shape" transform="translate(49.783,6.44755) rotate(45)">
				<title>Blad.1619</title>
				<path d="M0 70.4 L16.04 70.4" class="st2"/>
			</g>
			<g id="shape1620-32" v:mID="1620" v:groupContext="shape" transform="translate(49.783,9.2822) rotate(45)">
				<title>Blad.1620</title>
				<path d="M0 70.4 L16.04 70.4" class="st2"/>
			</g>
			<g id="shape1621-35" v:mID="1621" v:groupContext="shape" transform="translate(49.783,12.1168) rotate(45)">
				<title>Blad.1621</title>
				<path d="M0 70.4 L12.03 70.4" class="st2"/>
			</g>
			<g id="shape1622-38" v:mID="1622" v:groupContext="shape" transform="translate(49.783,14.9515) rotate(45)">
				<title>Blad.1622</title>
				<path d="M0 70.4 L8.02 70.4" class="st2"/>
			</g>
			<g id="shape1623-41" v:mID="1623" v:groupContext="shape" transform="translate(49.783,17.7861) rotate(45)">
				<title>Blad.1623</title>
				<path d="M0 70.4 L4.01 70.4" class="st2"/>
			</g>
		</g>
		<g id="shape1624-44" v:mID="1624" v:groupContext="shape" transform="translate(21.4456,-32.016) rotate(2.4909E-07)">
			<title>Ligger, 2 pt.1624</title>
			<path d="M0 70.4 L113.39 70.4" class="st3"/>
		</g>
		<g id="group1625-47" transform="translate(146.17,94.6182) rotate(180)" v:mID="1625" v:groupContext="group">
			<title>Inklemming.1625</title>
			<g id="shape1626-48" v:mID="1626" v:groupContext="shape" transform="translate(81.7423,42.0573) rotate(90)">
				<title>Blad.1626</title>
				<path d="M0 70.4 L28.35 70.4" class="st1"/>
			</g>
			<g id="shape1627-51" v:mID="1627" v:groupContext="shape" transform="translate(58.2869,-7.72568) rotate(45)">
				<title>Blad.1627</title>
				<path d="M0 70.4 L4.01 70.4" class="st2"/>
			</g>
			<g id="shape1628-54" v:mID="1628" v:groupContext="shape" transform="translate(55.4523,-7.72568) rotate(45)">
				<title>Blad.1628</title>
				<path d="M0 70.4 L8.02 70.4" class="st2"/>
			</g>
			<g id="shape1629-57" v:mID="1629" v:groupContext="shape" transform="translate(52.6176,-7.72568) rotate(45)">
				<title>Blad.1629</title>
				<path d="M0 70.4 L12.03 70.4" class="st2"/>
			</g>
			<g id="shape1630-60" v:mID="1630" v:groupContext="shape" transform="translate(49.783,-7.72568) rotate(45)">
				<title>Blad.1630</title>
				<path d="M0 70.4 L16.04 70.4" class="st2"/>
			</g>
			<g id="shape1631-63" v:mID="1631" v:groupContext="shape" transform="translate(49.783,-4.89103) rotate(45)">
				<title>Blad.1631</title>
				<path d="M0 70.4 L16.04 70.4" class="st2"/>
			</g>
			<g id="shape1632-66" v:mID="1632" v:groupContext="shape" transform="translate(49.783,-2.05639) rotate(45)">
				<title>Blad.1632</title>
				<path d="M0 70.4 L16.04 70.4" class="st2"/>
			</g>
			<g id="shape1633-69" v:mID="1633" v:groupContext="shape" transform="translate(49.783,0.778258) rotate(45)">
				<title>Blad.1633</title>
				<path d="M0 70.4 L16.04 70.4" class="st2"/>
			</g>
			<g id="shape1634-72" v:mID="1634" v:groupContext="shape" transform="translate(49.783,3.6129) rotate(45)">
				<title>Blad.1634</title>
				<path d="M0 70.4 L16.04 70.4" class="st2"/>
			</g>
			<g id="shape1635-75" v:mID="1635" v:groupContext="shape" transform="translate(49.783,6.44755) rotate(45)">
				<title>Blad.1635</title>
				<path d="M0 70.4 L16.04 70.4" class="st2"/>
			</g>
			<g id="shape1636-78" v:mID="1636" v:groupContext="shape" transform="translate(49.783,9.2822) rotate(45)">
				<title>Blad.1636</title>
				<path d="M0 70.4 L16.04 70.4" class="st2"/>
			</g>
			<g id="shape1637-81" v:mID="1637" v:groupContext="shape" transform="translate(49.783,12.1168) rotate(45)">
				<title>Blad.1637</title>
				<path d="M0 70.4 L12.03 70.4" class="st2"/>
			</g>
			<g id="shape1638-84" v:mID="1638" v:groupContext="shape" transform="translate(49.783,14.9515) rotate(45)">
				<title>Blad.1638</title>
				<path d="M0 70.4 L8.02 70.4" class="st2"/>
			</g>
			<g id="shape1639-87" v:mID="1639" v:groupContext="shape" transform="translate(49.783,17.7861) rotate(45)">
				<title>Blad.1639</title>
				<path d="M0 70.4 L4.01 70.4" class="st2"/>
			</g>
		</g>
		<g id="shape1640-90" v:mID="1640" v:groupContext="shape" transform="translate(7.73475,41.2224) rotate(-90)">
			<title>Blad.1640</title>
			<path d="M0 70.4 L5.67 70.4" class="st2"/>
		</g>
		<g id="shape1641-93" v:mID="1641" v:groupContext="shape" transform="translate(8.47101,-30.8102) rotate(-10.6197)">
			<title>Blad.1641</title>
			<path d="M0 70.4 L115.36 70.4" class="st4"/>
		</g>
		<g id="shape1642-96" v:mID="1642" v:groupContext="shape" transform="translate(164.004,24.8587) rotate(90)">
			<title>Kracht.1642</title>
			<path d="M0 70.4 L8.91 70.4" class="st5"/>
		</g>
		<g id="shape1643-102" v:mID="1643" v:groupContext="shape" transform="translate(205.235,17.1279) rotate(90)">
			<title>Kracht.1643</title>
			<path d="M0 70.4 L16.64 70.4" class="st5"/>
		</g>
		<g id="shape1644-107" v:mID="1644" v:groupContext="shape" transform="translate(184.62,20.9933) rotate(90)">
			<title>Kracht.1644</title>
			<path d="M0 70.4 L12.77 70.4" class="st5"/>
		</g>
		<g id="shape1645-112" v:mID="1645" v:groupContext="shape" transform="translate(143.388,28.7242) rotate(90)">
			<title>Kracht.1645</title>
			<path d="M0 70.4 L5.04 70.4" class="st5"/>
		</g>
		<g id="shape1646-117" v:mID="1646" v:groupContext="shape" transform="translate(99.3984,-56.1105)">
			<title>Punt A.1646</title>
			<desc>q2 &#60; qL&#60; q3</desc>
			<v:textBlock v:margins="rect(4,4,4,4)" v:tabSpace="42.5197"/>
			<v:textRect cx="35.4331" cy="63.3171" width="70.87" height="14.1732"/>
			<rect x="0" y="56.2305" width="70.8661" height="14.1732" class="st7"/>
			<text x="8.22" y="66.92" class="st8" v:langID="1043"><v:paragraph v:horizAlign="1"/><v:tabList/>q<tspan dy="-0.279em"
						class="st9" v:baseFontSize="12">2</tspan><tspan dy="0.181em" class="st10"> </tspan>&#60; q<tspan
						dy="-0.279em" class="st9" v:baseFontSize="12">L</tspan><tspan dy="0.181em" class="st11">&#60; </tspan>q<tspan
						dy="-0.279em" class="st9" v:baseFontSize="12">3</tspan></text>		</g>
		<g id="shape1647-125" v:mID="1647" v:groupContext="shape" transform="translate(130.579,-29.89)">
			<title>Scharnier.1647</title>
			<ellipse cx="2.12598" cy="68.2778" rx="2.12598" ry="2.12598" class="st12"/>
		</g>
		<g id="shape1648-127" v:mID="1648" v:groupContext="shape" transform="translate(202.117,24.2145) rotate(90)">
			<title>Moment.1648</title>
			<path d="M-0 70.4 A14.1732 14.1732 0 0 1 14.17 56.23 A14.1732 14.1732 0 0 1 26.14 62.81 L26.24 63.15" class="st13"/>
		</g>
		<g id="shape1649-133" v:mID="1649" v:groupContext="shape" transform="translate(120.658,-0.83492)">
			<title>Blad.1649</title>
			<desc>Mp</desc>
			<v:textBlock v:margins="rect(4,4,4,4)" v:tabSpace="42.5197"/>
			<v:textRect cx="14.1732" cy="63.3171" width="28.35" height="14.1732"/>
			<rect x="0" y="56.2305" width="28.3465" height="14.1732" class="st15"/>
			<text x="7.23" y="66.92" class="st8" v:langID="1043"><v:paragraph v:horizAlign="1"/><v:tabList/>M<tspan dy="-0.279em"
						class="st9" v:baseFontSize="12">p</tspan></text>		</g>
		<g id="shape1650-137" v:mID="1650" v:groupContext="shape" transform="translate(22.1543,-29.89)">
			<title>Scharnier.1650</title>
			<ellipse cx="2.12598" cy="68.2778" rx="2.12598" ry="2.12598" class="st12"/>
		</g>
		<g id="shape1651-139" v:mID="1651" v:groupContext="shape" transform="translate(-46.1235,24.2145) rotate(-90) scale(-1,1)">
			<title>Moment.1298</title>
			<path d="M-0 70.4 A14.1732 14.1732 0 0 1 14.17 56.23 A14.1732 14.1732 0 0 1 26.14 62.81 L26.24 63.15" class="st13"/>
		</g>
		<g id="shape1652-144" v:mID="1652" v:groupContext="shape" transform="translate(7.27234,-3.22948)">
			<title>Blad.1652</title>
			<desc>Mp</desc>
			<v:textBlock v:margins="rect(4,4,4,4)" v:tabSpace="42.5197"/>
			<v:textRect cx="14.1732" cy="63.3171" width="28.35" height="14.1732"/>
			<rect x="0" y="56.2305" width="28.3465" height="14.1732" class="st15"/>
			<text x="7.23" y="66.92" class="st8" v:langID="1043"><v:paragraph v:horizAlign="1"/><v:tabList/>M<tspan dy="-0.279em"
						class="st9" v:baseFontSize="12">p</tspan></text>		</g>
	</g>
</svg>
