<?xml version="1.0" encoding="UTF-8" standalone="no"?>
<!DOCTYPE svg PUBLIC "-//W3C//DTD SVG 1.1//EN" "http://www.w3.org/Graphics/SVG/1.1/DTD/svg11.dtd">
<!-- Gegenereerd door Microsoft Visio, SVG Export structure.svg Pagina-1 -->
<svg xmlns="http://www.w3.org/2000/svg" xmlns:xlink="http://www.w3.org/1999/xlink" xmlns:ev="http://www.w3.org/2001/xml-events"
		xmlns:v="http://schemas.microsoft.com/visio/2003/SVGExtensions/" width="1.90018in" height="1.33151in"
		viewBox="0 0 136.813 95.869" xml:space="preserve" color-interpolation-filters="sRGB" class="st18">
	<v:documentProperties v:langID="1043" v:metric="true" v:viewMarkup="false"/>

	<style type="text/css">
	<![CDATA[
		.st1 {stroke:#000000;stroke-linecap:round;stroke-linejoin:round;stroke-width:1.2}
		.st2 {stroke:#000000;stroke-linecap:round;stroke-linejoin:round;stroke-width:0.75}
		.st3 {stroke:#000000;stroke-linecap:round;stroke-linejoin:round;stroke-width:2}
		.st4 {stroke:#000000;stroke-linecap:round;stroke-linejoin:round;stroke-width:0.25}
		.st5 {marker-end:url(#mrkr4-106);marker-start:url(#mrkr4-104);stroke:#000000;stroke-linecap:round;stroke-linejoin:round;stroke-width:0.25}
		.st6 {fill:#000000;fill-opacity:1;stroke:#000000;stroke-opacity:1;stroke-width:0.1219512195122}
		.st7 {fill:none;stroke:none;stroke-linecap:round;stroke-linejoin:round;stroke-width:0.75}
		.st8 {fill:#000000;font-family:Times New Roman;font-size:1.00001em;font-style:italic}
		.st9 {font-size:1em;font-style:normal}
		.st10 {fill:none;stroke:none;stroke-linecap:round;stroke-linejoin:round;stroke-width:0.24}
		.st11 {fill:#000000;font-family:Times New Roman;font-size:1.00001em}
		.st12 {marker-end:url(#mrkr1-147);stroke:#000000;stroke-linecap:butt;stroke-width:3}
		.st13 {fill:#000000;fill-opacity:1;stroke:#000000;stroke-opacity:1;stroke-width:0.67567567567568}
		.st14 {baseline-shift:-32.4941%;font-size:0.649882em;font-style:normal}
		.st15 {stroke:#800000;stroke-linecap:round;stroke-linejoin:round;stroke-width:1.2}
		.st16 {marker-end:url(#mrkr5-160);stroke:#800000;stroke-linecap:round;stroke-linejoin:round;stroke-width:1.2}
		.st17 {fill:#800000;fill-opacity:1;stroke:#800000;stroke-opacity:1;stroke-width:0.45454545454546}
		.st18 {fill:none;fill-rule:evenodd;font-size:12px;overflow:visible;stroke-linecap:square;stroke-miterlimit:3}
	]]>
	</style>

	<defs id="Markers">
		<g id="lend4">
			<path d="M 2 1 L 0 0 L 2 -1 L 2 1 " style="stroke:none"/>
		</g>
		<marker id="mrkr4-104" class="st6" v:arrowType="4" v:arrowSize="1" v:setback="14.96" refX="14.96" orient="auto"
				markerUnits="strokeWidth" overflow="visible">
			<use xlink:href="#lend4" transform="scale(8.2) "/>
		</marker>
		<marker id="mrkr4-106" class="st6" v:arrowType="4" v:arrowSize="1" v:setback="16.4" refX="-16.4" orient="auto"
				markerUnits="strokeWidth" overflow="visible">
			<use xlink:href="#lend4" transform="scale(-8.2,-8.2) "/>
		</marker>
		<g id="lend1">
			<path d="M 1 -1 L 0 0 L 1 1 " style="stroke-linecap:round;stroke-linejoin:round;fill:none"/>
		</g>
		<marker id="mrkr1-147" class="st13" v:arrowType="1" v:arrowSize="0" orient="auto" markerUnits="strokeWidth"
				overflow="visible">
			<use xlink:href="#lend1" transform="scale(-1.48,-1.48) "/>
		</marker>
		<g id="lend5">
			<path d="M 2 1 L 0 0 L 1.98117 -0.993387 C 1.67173 -0.364515 1.67301 0.372641 1.98465 1.00043 " style="stroke:none"/>
		</g>
		<marker id="mrkr5-160" class="st17" v:arrowType="5" v:arrowSize="0" v:setback="3.85" refX="-3.85" orient="auto"
				markerUnits="strokeWidth" overflow="visible">
			<use xlink:href="#lend5" transform="scale(-2.2,-2.2) "/>
		</marker>
	</defs>
	<g v:mID="0" v:index="1" v:groupContext="foregroundPage">
		<title>Pagina-1</title>
		<v:pageProperties v:drawingScale="0.0393701" v:pageScale="0.0393701" v:drawingUnits="24" v:shadowOffsetX="8.50394"
				v:shadowOffsetY="-8.50394"/>
		<g id="group1142-1" transform="translate(0.375,-42.8947)" v:mID="1142" v:groupContext="group">
			<title>Inklemming.1142</title>
			<g id="shape1143-2" v:mID="1143" v:groupContext="shape" transform="translate(107.208,67.5226) rotate(90)">
				<title>Blad.1143</title>
				<path d="M0 95.87 L28.35 95.87" class="st1"/>
			</g>
			<g id="shape1144-5" v:mID="1144" v:groupContext="shape" transform="translate(76.2936,-0.267071) rotate(45)">
				<title>Blad.1144</title>
				<path d="M0 95.87 L4.01 95.87" class="st2"/>
			</g>
			<g id="shape1145-8" v:mID="1145" v:groupContext="shape" transform="translate(73.4589,-0.267071) rotate(45)">
				<title>Blad.1145</title>
				<path d="M0 95.87 L8.02 95.87" class="st2"/>
			</g>
			<g id="shape1146-11" v:mID="1146" v:groupContext="shape" transform="translate(70.6243,-0.267071) rotate(45)">
				<title>Blad.1146</title>
				<path d="M0 95.87 L12.03 95.87" class="st2"/>
			</g>
			<g id="shape1147-14" v:mID="1147" v:groupContext="shape" transform="translate(67.7896,-0.267071) rotate(45)">
				<title>Blad.1147</title>
				<path d="M0 95.87 L16.04 95.87" class="st2"/>
			</g>
			<g id="shape1148-17" v:mID="1148" v:groupContext="shape" transform="translate(67.7896,2.56757) rotate(45)">
				<title>Blad.1148</title>
				<path d="M0 95.87 L16.04 95.87" class="st2"/>
			</g>
			<g id="shape1149-20" v:mID="1149" v:groupContext="shape" transform="translate(67.7896,5.40222) rotate(45)">
				<title>Blad.1149</title>
				<path d="M0 95.87 L16.04 95.87" class="st2"/>
			</g>
			<g id="shape1150-23" v:mID="1150" v:groupContext="shape" transform="translate(67.7896,8.23687) rotate(45)">
				<title>Blad.1150</title>
				<path d="M0 95.87 L16.04 95.87" class="st2"/>
			</g>
			<g id="shape1151-26" v:mID="1151" v:groupContext="shape" transform="translate(67.7896,11.0715) rotate(45)">
				<title>Blad.1151</title>
				<path d="M0 95.87 L16.04 95.87" class="st2"/>
			</g>
			<g id="shape1152-29" v:mID="1152" v:groupContext="shape" transform="translate(67.7896,13.9062) rotate(45)">
				<title>Blad.1152</title>
				<path d="M0 95.87 L16.04 95.87" class="st2"/>
			</g>
			<g id="shape1153-32" v:mID="1153" v:groupContext="shape" transform="translate(67.7896,16.7408) rotate(45)">
				<title>Blad.1153</title>
				<path d="M0 95.87 L16.04 95.87" class="st2"/>
			</g>
			<g id="shape1154-35" v:mID="1154" v:groupContext="shape" transform="translate(67.7896,19.5754) rotate(45)">
				<title>Blad.1154</title>
				<path d="M0 95.87 L12.03 95.87" class="st2"/>
			</g>
			<g id="shape1155-38" v:mID="1155" v:groupContext="shape" transform="translate(67.7896,22.4101) rotate(45)">
				<title>Blad.1155</title>
				<path d="M0 95.87 L8.02 95.87" class="st2"/>
			</g>
			<g id="shape1156-41" v:mID="1156" v:groupContext="shape" transform="translate(67.7896,25.2447) rotate(45)">
				<title>Blad.1156</title>
				<path d="M0 95.87 L4.01 95.87" class="st2"/>
			</g>
		</g>
		<g id="shape1157-44" v:mID="1157" v:groupContext="shape" transform="translate(11.7136,-57.0679) rotate(2.4909E-07)">
			<title>Ligger, 2 pt.1157</title>
			<path d="M0 95.87 L113.39 95.87" class="st3"/>
		</g>
		<g id="group1158-47" transform="translate(136.438,120.497) rotate(180)" v:mID="1158" v:groupContext="group">
			<title>Inklemming.1158</title>
			<g id="shape1159-48" v:mID="1159" v:groupContext="shape" transform="translate(107.208,67.5226) rotate(90)">
				<title>Blad.1159</title>
				<path d="M0 95.87 L28.35 95.87" class="st1"/>
			</g>
			<g id="shape1160-51" v:mID="1160" v:groupContext="shape" transform="translate(76.2936,-0.267071) rotate(45)">
				<title>Blad.1160</title>
				<path d="M0 95.87 L4.01 95.87" class="st2"/>
			</g>
			<g id="shape1161-54" v:mID="1161" v:groupContext="shape" transform="translate(73.4589,-0.267071) rotate(45)">
				<title>Blad.1161</title>
				<path d="M0 95.87 L8.02 95.87" class="st2"/>
			</g>
			<g id="shape1162-57" v:mID="1162" v:groupContext="shape" transform="translate(70.6243,-0.267071) rotate(45)">
				<title>Blad.1162</title>
				<path d="M0 95.87 L12.03 95.87" class="st2"/>
			</g>
			<g id="shape1163-60" v:mID="1163" v:groupContext="shape" transform="translate(67.7896,-0.267071) rotate(45)">
				<title>Blad.1163</title>
				<path d="M0 95.87 L16.04 95.87" class="st2"/>
			</g>
			<g id="shape1164-63" v:mID="1164" v:groupContext="shape" transform="translate(67.7896,2.56757) rotate(45)">
				<title>Blad.1164</title>
				<path d="M0 95.87 L16.04 95.87" class="st2"/>
			</g>
			<g id="shape1165-66" v:mID="1165" v:groupContext="shape" transform="translate(67.7896,5.40222) rotate(45)">
				<title>Blad.1165</title>
				<path d="M0 95.87 L16.04 95.87" class="st2"/>
			</g>
			<g id="shape1166-69" v:mID="1166" v:groupContext="shape" transform="translate(67.7896,8.23687) rotate(45)">
				<title>Blad.1166</title>
				<path d="M0 95.87 L16.04 95.87" class="st2"/>
			</g>
			<g id="shape1167-72" v:mID="1167" v:groupContext="shape" transform="translate(67.7896,11.0715) rotate(45)">
				<title>Blad.1167</title>
				<path d="M0 95.87 L16.04 95.87" class="st2"/>
			</g>
			<g id="shape1168-75" v:mID="1168" v:groupContext="shape" transform="translate(67.7896,13.9062) rotate(45)">
				<title>Blad.1168</title>
				<path d="M0 95.87 L16.04 95.87" class="st2"/>
			</g>
			<g id="shape1169-78" v:mID="1169" v:groupContext="shape" transform="translate(67.7896,16.7408) rotate(45)">
				<title>Blad.1169</title>
				<path d="M0 95.87 L16.04 95.87" class="st2"/>
			</g>
			<g id="shape1170-81" v:mID="1170" v:groupContext="shape" transform="translate(67.7896,19.5754) rotate(45)">
				<title>Blad.1170</title>
				<path d="M0 95.87 L12.03 95.87" class="st2"/>
			</g>
			<g id="shape1171-84" v:mID="1171" v:groupContext="shape" transform="translate(67.7896,22.4101) rotate(45)">
				<title>Blad.1171</title>
				<path d="M0 95.87 L8.02 95.87" class="st2"/>
			</g>
			<g id="shape1172-87" v:mID="1172" v:groupContext="shape" transform="translate(67.7896,25.2447) rotate(45)">
				<title>Blad.1172</title>
				<path d="M0 95.87 L4.01 95.87" class="st2"/>
			</g>
		</g>
		<g id="group1182-90" transform="translate(11.7136,-0.375)" v:mID="1182" v:groupContext="group">
			<title>Maatlijn.1182</title>
			<g id="group1183-91" transform="translate(0,-9.92126)" v:mID="1183" v:groupContext="group">
				<title>Maatlijn.31</title>
				<g id="shape1184-92" v:mID="1184" v:groupContext="shape" transform="translate(95.869,87.3651) rotate(90)">
					<title>Blad.1184</title>
					<path d="M0 95.87 L8.5 95.87" class="st4"/>
				</g>
				<g id="shape1185-95" v:mID="1185" v:groupContext="shape" transform="translate(152.562,87.3651) rotate(90)">
					<title>Blad.1185</title>
					<path d="M0 95.87 L8.5 95.87" class="st4"/>
				</g>
				<g id="shape1186-98" v:mID="1186" v:groupContext="shape" transform="translate(0,-4.25197)">
					<title>Blad.1186</title>
					<path d="M3.74 95.87 L4.1 95.87 L52.59 95.87" class="st5"/>
				</g>
			</g>
			<g id="shape1187-107" v:mID="1187" v:groupContext="shape">
				<title>Blad.1187</title>
				<desc>L/2</desc>
				<v:textBlock v:margins="rect(4,4,4,4)" v:tabSpace="42.5197"/>
				<v:textRect cx="28.3465" cy="88.7824" width="56.7" height="14.1732"/>
				<rect x="0" y="81.6958" width="56.6929" height="14.1732" class="st7"/>
				<text x="20.34" y="92.38" class="st8" v:langID="1043"><v:paragraph v:horizAlign="1"/><v:tabList/>L<tspan
							class="st9">/2</tspan></text>			</g>
		</g>
		<g id="shape1188-111" v:mID="1188" v:groupContext="shape" transform="translate(11.7136,-42.8947)">
			<title>Punt A.1188</title>
			<desc>A</desc>
			<v:textBlock v:margins="rect(4,4,4,4)" v:tabSpace="42.5197"/>
			<v:textRect cx="7.08661" cy="88.7824" width="14.18" height="14.1732"/>
			<rect x="0" y="81.6958" width="14.1732" height="14.1732" class="st10"/>
			<text x="4" y="92.38" class="st11" v:langID="1043"><v:paragraph v:horizAlign="1"/><v:tabList/>A</text>		</g>
		<g id="shape1189-114" v:mID="1189" v:groupContext="shape" transform="translate(110.926,-42.8947)">
			<title>Punt A.1189</title>
			<desc>B</desc>
			<v:textBlock v:margins="rect(4,4,4,4)" v:tabSpace="42.5197"/>
			<v:textRect cx="7.08661" cy="88.7824" width="14.18" height="14.1732"/>
			<rect x="0" y="81.6958" width="14.1732" height="14.1732" class="st10"/>
			<text x="4" y="92.38" class="st11" v:langID="1043"><v:paragraph v:horizAlign="1"/><v:tabList/>B</text>		</g>
		<g id="group1190-117" transform="translate(68.4065,-0.375)" v:mID="1190" v:groupContext="group">
			<title>Maatlijn.1190</title>
			<g id="group1191-118" transform="translate(0,-9.92126)" v:mID="1191" v:groupContext="group">
				<title>Maatlijn.31</title>
				<g id="shape1192-119" v:mID="1192" v:groupContext="shape" transform="translate(95.869,87.3651) rotate(90)">
					<title>Blad.1192</title>
					<path d="M0 95.87 L8.5 95.87" class="st4"/>
				</g>
				<g id="shape1193-122" v:mID="1193" v:groupContext="shape" transform="translate(152.562,87.3651) rotate(90)">
					<title>Blad.1193</title>
					<path d="M0 95.87 L8.5 95.87" class="st4"/>
				</g>
				<g id="shape1194-125" v:mID="1194" v:groupContext="shape" transform="translate(0,-4.25197)">
					<title>Blad.1194</title>
					<path d="M3.74 95.87 L4.1 95.87 L52.59 95.87" class="st5"/>
				</g>
			</g>
			<g id="shape1195-132" v:mID="1195" v:groupContext="shape">
				<title>Blad.1195</title>
				<desc>L/2</desc>
				<v:textBlock v:margins="rect(4,4,4,4)" v:tabSpace="42.5197"/>
				<v:textRect cx="28.3465" cy="88.7824" width="56.7" height="14.1732"/>
				<rect x="0" y="81.6958" width="56.6929" height="14.1732" class="st7"/>
				<text x="20.34" y="92.38" class="st8" v:langID="1043"><v:paragraph v:horizAlign="1"/><v:tabList/>L<tspan
							class="st9">/2</tspan></text>			</g>
		</g>
		<g id="shape1196-136" v:mID="1196" v:groupContext="shape" transform="translate(-27.4626,41.6358) rotate(-90)">
			<title>Blad.1196</title>
			<path d="M0 95.87 L5.67 95.87" class="st2"/>
		</g>
		<g id="shape1197-139" v:mID="1197" v:groupContext="shape" transform="translate(54.2333,-43.1781)">
			<title>Punt A.1197</title>
			<desc>C</desc>
			<v:textBlock v:margins="rect(4,4,4,4)" v:tabSpace="42.5197"/>
			<v:textRect cx="7.08661" cy="88.7824" width="14.18" height="14.1732"/>
			<rect x="0" y="81.6958" width="14.1732" height="14.1732" class="st10"/>
			<text x="4" y="92.38" class="st11" v:langID="1043"><v:paragraph v:horizAlign="1"/><v:tabList/>C</text>		</g>
		<g id="shape1198-142" v:mID="1198" v:groupContext="shape" transform="translate(164.276,38.5176) rotate(90)">
			<title>verplaatsing.1198</title>
			<path d="M0 95.87 L28.35 95.87" class="st12"/>
		</g>
		<g id="shape1199-148" v:mID="1199" v:groupContext="shape" transform="translate(71.2411,-25.8868)">
			<title>Punt A.1199</title>
			<desc>wC</desc>
			<v:textBlock v:margins="rect(4,4,4,4)" v:tabSpace="42.5197"/>
			<v:textRect cx="11.3386" cy="88.7824" width="22.68" height="14.1732"/>
			<rect x="0" y="81.6958" width="22.6772" height="14.1732" class="st10"/>
			<text x="4.74" y="92.38" class="st8" v:langID="1043"><v:paragraph v:horizAlign="1"/><v:tabList/>w<tspan dy="-0.279em"
						class="st14" v:baseFontSize="12">C</tspan></text>		</g>
		<g id="shape1490-152" v:mID="1490" v:groupContext="shape" transform="translate(-5.95398,-55.4259) rotate(-10.6197)">
			<title>Blad.1490</title>
			<path d="M0 95.87 L115.36 95.87" class="st15"/>
		</g>
		<g id="shape1491-155" v:mID="1491" v:groupContext="shape" transform="translate(179.737,25.2721) rotate(90)">
			<title>Kracht.54</title>
			<path d="M0 95.87 L8.91 95.87" class="st16"/>
		</g>
		<g id="shape1492-161" v:mID="1492" v:groupContext="shape" transform="translate(220.968,17.5413) rotate(90)">
			<title>Kracht.6</title>
			<path d="M0 95.87 L16.64 95.87" class="st16"/>
		</g>
		<g id="shape1493-166" v:mID="1493" v:groupContext="shape" transform="translate(200.353,21.4067) rotate(90)">
			<title>Kracht.7</title>
			<path d="M0 95.87 L12.77 95.87" class="st16"/>
		</g>
		<g id="shape1494-171" v:mID="1494" v:groupContext="shape" transform="translate(159.122,29.1375) rotate(90)">
			<title>Kracht.1</title>
			<path d="M0 95.87 L5.04 95.87" class="st16"/>
		</g>
		<g id="shape1495-176" v:mID="1495" v:groupContext="shape" transform="translate(112.343,-81.5758)">
			<title>Punt A.1495</title>
			<desc>qL</desc>
			<v:textBlock v:margins="rect(4,4,4,4)" v:tabSpace="42.5197"/>
			<v:textRect cx="11.3386" cy="88.7824" width="22.68" height="14.1732"/>
			<rect x="0" y="81.6958" width="22.6772" height="14.1732" class="st10"/>
			<text x="5.96" y="92.38" class="st8" v:langID="1043"><v:paragraph v:horizAlign="1"/><v:tabList/>q<tspan dy="-0.279em"
						class="st14" v:baseFontSize="12">L</tspan></text>		</g>
	</g>
</svg>
